# xmcd
#
# Track frame offsets:
#	150
#	14103
#	29915
#	45572
#	57670
#	70000
#	84276
#	98522
#	115639
#	131751
#	146501
#	163323
#	180264
#	193631
#	206233
#
# Disc length: 2927 seconds
#
# Revision: 3
# Processed by: cddbd v1.5.2PL0 Copyright (c) Steve Scherf et al.
# Submitted via: audiograbber 1.83.01
#
DISCID=d70b6d0f
DTITLE=Various Artist - CB60165
DYEAR=1998
DGENRE=Karaoke
TTITLE0=Randy Travis - Old 8 X10
TTITLE1=Randy Travis - The Box
TTITLE2=Randy Travis - Written In Stone
TTITLE3=Randy Travis - Honky Tonk Moon
TTITLE4=Randy Travis - When Your World Was Turning For Me
TTITLE5=David Ball - When The Thought Of You Catches Up With Me
TTITLE6=David Ball - Look What Followed Me Home
TTITLE7=David Ball - What Do You Want With His Love
TTITLE8=David Ball - Honky Tonk Healing
TTITLE9=David Ball - Circle Of Friends
TTITLE10=Mark Collie - Something's Gonna Change Her Mind
TTITLE11=Mark Collie - It Is No Secret
TTITLE12=Mark Collie - Three Words, Two hearts, One Night
TTITLE13=Robert Ellis Orrall - Boom, It Was Over
TTITLE14=Robert Ellis Orrall - A Little Bit Of Her Love
EXTD=
EXTT0=
EXTT1=
EXTT2=
EXTT3=
EXTT4=
EXTT5=
EXTT6=
EXTT7=
EXTT8=
EXTT9=
EXTT10=
EXTT11=
EXTT12=
EXTT13=
EXTT14=
PLAYORDER=
